<?xml version="1.0" encoding="UTF-8" standalone="no" ?>
<!DOCTYPE svg PUBLIC "-//W3C//DTD SVG 1.1//EN" "http://www.w3.org/Graphics/SVG/1.1/DTD/svg11.dtd">
<svg xmlns="http://www.w3.org/2000/svg" xmlns:xlink="http://www.w3.org/1999/xlink" version="1.1" width="1080" height="1080" viewBox="0 0 1080 1080" xml:space="preserve">
<desc>Created with Fabric.js 5.2.4</desc>
<defs>
</defs>
<g transform="matrix(1 0 0 1 540 540)" id="7f571f32-68de-4bda-93b5-dde8eb87ecd2"  >
<rect style="stroke: none; stroke-width: 1; stroke-dasharray: none; stroke-linecap: butt; stroke-dashoffset: 0; stroke-linejoin: miter; stroke-miterlimit: 4; fill: rgb(255,255,255); fill-rule: nonzero; opacity: 1; visibility: hidden;" vector-effect="non-scaling-stroke"  x="-540" y="-540" rx="0" ry="0" width="1080" height="1080" />
</g>
<g transform="matrix(1 0 0 1 540 540)" id="bb14535e-68ac-409f-b404-03ee2ca3cb7b"  >
</g>
<g transform="matrix(13.63 0 0 13.63 540 540)" id="198ffde5-1323-49e6-a5a7-1892044354df"  >
<path style="stroke: rgb(0,0,0); stroke-width: 0; stroke-dasharray: none; stroke-linecap: butt; stroke-dashoffset: 0; stroke-linejoin: miter; stroke-miterlimit: 4; fill: rgb(219,82,68); fill-rule: nonzero; opacity: 1;" vector-effect="non-scaling-stroke"  transform=" translate(-16, -16)" d="M 21.25 2.979 C 16.25 2.979 14.917 -0.020999999999999908 8.584 -0.020999999999999908 C 4.5 -0.020999999999999908 2 3.063 2 3.063 L 2 31.020999999999997 C 2 31.572999999999997 2.448 32.021 3 32.021 C 3.552 32.021 4 31.573 4 31.021 L 4 18.275 C 5.055 17.595 6.511 16.979 8.334 16.979 C 14.667 16.979 16.5 19.979 21.5 19.979 C 26.5 19.979 30 16.979 30 16.979 L 30 -0.021000000000000796 C 30 -0.021000000000000796 26.25 2.978999999999999 21.25 2.978999999999999 z M 28 15.96 C 26.87 16.697 24.476 17.979 21.5 17.979 C 19.534 17.979 18.192 17.439 16.493000000000002 16.756 C 14.422000000000002 15.924 12.074000000000002 14.979000000000001 8.334000000000001 14.979000000000001 C 6.625000000000002 14.979000000000001 5.175000000000002 15.409 4.000000000000002 15.984000000000002 L 4.000000000000002 3.8760000000000012 C 4.753000000000002 3.191000000000001 6.394000000000002 1.9790000000000012 8.584000000000001 1.9790000000000012 C 11.525000000000002 1.9790000000000012 13.181000000000001 2.6930000000000014 14.934000000000001 3.4480000000000013 C 16.68 4.200000000000001 18.486 4.979000000000001 21.25 4.979000000000001 C 23.914 4.979000000000001 26.253999999999998 4.242000000000001 28 3.450000000000001 L 28 15.959000000000001 z" stroke-linecap="round" />
</g>
<g transform="matrix(5.14 0 0 2.65 541.03 457.18)" id="917d7391-8913-4095-97bd-46d5d24a716e"  >
<rect style="stroke: rgb(0,0,0); stroke-width: 0; stroke-dasharray: none; stroke-linecap: butt; stroke-dashoffset: 0; stroke-linejoin: miter; stroke-miterlimit: 4; fill: rgb(219,82,68); fill-rule: nonzero; opacity: 1;" vector-effect="non-scaling-stroke"  x="-33.0835" y="-33.0835" rx="0" ry="0" width="66.167" height="66.167" />
</g>
<g transform="matrix(2.27 0 0 1 450.66 375.56)" id="c94eefd6-0d33-4699-b4b5-f7f411e221b1"  >
<circle style="stroke: rgb(0,0,0); stroke-width: 0; stroke-dasharray: none; stroke-linecap: butt; stroke-dashoffset: 0; stroke-linejoin: miter; stroke-miterlimit: 4; fill: rgb(219,82,68); fill-rule: nonzero; opacity: 1;" vector-effect="non-scaling-stroke"  cx="0" cy="0" r="35" />
</g>
<g transform="matrix(2.57 0 0 1 619.85 540)" id="fb918481-c46c-4f62-b176-fe29d3b694a9"  >
<circle style="stroke: rgb(0,0,0); stroke-width: 0; stroke-dasharray: none; stroke-linecap: butt; stroke-dashoffset: 0; stroke-linejoin: miter; stroke-miterlimit: 4; fill: rgb(219,82,68); fill-rule: nonzero; opacity: 1;" vector-effect="non-scaling-stroke"  cx="0" cy="0" r="35" />
</g>
<g transform="matrix(NaN NaN NaN NaN 0 0)"  >
<g style=""   >
</g>
</g>
<g transform="matrix(NaN NaN NaN NaN 0 0)"  >
<g style=""   >
</g>
</g>
<g transform="matrix(NaN NaN NaN NaN 0 0)"  >
<g style=""   >
</g>
</g>
<g transform="matrix(NaN NaN NaN NaN 0 0)"  >
<g style=""   >
</g>
</g>
<g transform="matrix(NaN NaN NaN NaN 0 0)"  >
<g style=""   >
</g>
</g>
<g transform="matrix(NaN NaN NaN NaN 0 0)"  >
<g style=""   >
</g>
</g>
<g transform="matrix(NaN NaN NaN NaN 0 0)"  >
<g style=""   >
</g>
</g>
<g transform="matrix(NaN NaN NaN NaN 0 0)"  >
<g style=""   >
</g>
</g>
</svg>